<svg width="40" height="25" viewBox="0 0 40 25" fill="none" xmlns="http://www.w3.org/2000/svg">
<path fill-rule="evenodd" clip-rule="evenodd" d="M0.0458374 25.0001L0.0458374 0.320068L4.92647 0.320068L8.30584 8.24282V0.320068L14.1138 0.320068L14.1138 25.0001H9.35793L5.99384 16.6272L5.99384 25.0001H0.0458374ZM4.99384 11.4561L10.0338 24.0001H13.1138L13.1138 1.32007L9.30584 1.32007V13.1361L4.26584 1.32007L1.04584 1.32007L1.04584 24.0001H4.99384V11.4561ZM15.5497 25.0001L15.5497 0.320068L39.6643 0.320068V5.76407H36.2203V25.0001L29.5723 25.0001V5.76407H26.0723V5.45607L22.1697 5.45607V9.58807H26.3697V14.8081H22.1697V25.0001H15.5497ZM21.1697 13.8081H25.3697V10.5881H21.1697V4.45607L26.1257 4.45607V1.32007L16.5497 1.32007V24.0001H21.1697V13.8081ZM30.5723 4.76407V24.0001L35.2203 24.0001V4.76407H38.6643V1.32007L27.0723 1.32007V4.76407H30.5723Z" fill="#F19E38"/>
</svg>
