<svg width="382" height="54" viewBox="0 0 382 54" fill="none" xmlns="http://www.w3.org/2000/svg">
<path d="M292.03 53.9871C337.842 52.8483 374.518 42.5286 373.95 30.9375C373.682 25.4858 365.223 20.7238 351.571 17.3273C370.244 21.1732 382 26.7697 382 33C382 44.5601 341.525 53.9386 291.494 54C291.673 53.9958 291.851 53.9916 292.03 53.9871Z" fill="#D9D9D9"/>
<path d="M30.4532 48.6777C16.7871 45.2807 8.3186 40.5164 8.05102 35.0616C7.48242 23.4705 44.1592 13.1509 89.9709 12.012C90.1375 12.0079 90.3039 12.0039 90.4703 12C40.4561 12.0658 0 21.4426 0 33C0 39.2329 11.7666 44.8316 30.4532 48.6777Z" fill="#D9D9D9"/>
<path d="M103 0L105.263 7.73726L113 10L105.263 12.2627L103 20L100.737 12.2627L93 10L100.737 7.73726L103 0Z" fill="#CBFF01"/>
</svg>
