<svg width="72" height="26" viewBox="0 0 72 26" fill="none" xmlns="http://www.w3.org/2000/svg">
<path fill-rule="evenodd" clip-rule="evenodd" d="M3.836 25L3.836 5.76404H0.335999L0.335999 0.320038L13.928 0.320038V4.80498C13.9981 4.55556 14.0768 4.3134 14.1643 4.07866L14.1669 4.07172L14.1696 4.06483C14.6757 2.76642 15.5182 1.74722 16.6892 1.04909C17.871 0.344559 19.387 0.0400391 21.1493 0.0400391C22.9273 0.0400391 24.4551 0.352803 25.6398 1.07849C26.8255 1.77484 27.6704 2.79382 28.1586 4.09692C28.6445 5.32659 28.8693 6.77204 28.8693 8.40404V16.86C28.8693 18.4959 28.6434 19.9564 28.1607 21.2176C27.6729 22.5232 26.8287 23.5506 25.6458 24.2659C24.4602 24.9942 22.9303 25.308 21.1493 25.308C19.3826 25.308 17.8618 24.9927 16.6772 24.2637C15.5138 23.5478 14.6748 22.5233 14.1696 21.2272L14.1659 21.2178L14.1624 21.2083C13.7012 19.9506 13.4853 18.4936 13.4853 16.86V8.40404C13.4853 7.46159 13.5572 6.57997 13.707 5.76404H10.484V25H3.836ZM9.484 4.76404H12.928V1.32004L1.336 1.32004L1.336 4.76404H4.836L4.836 24H9.484V4.76404ZM25.1253 23.412C26.1146 22.8147 26.8146 21.9654 27.2253 20.864C27.6546 19.744 27.8693 18.4094 27.8693 16.86V8.40404C27.8693 6.85471 27.6546 5.53871 27.2253 4.45604C26.8146 3.35471 26.1146 2.51471 25.1253 1.93604C24.1546 1.33871 22.8293 1.04004 21.1493 1.04004C19.4879 1.04004 18.1719 1.32937 17.2013 1.90804C16.2306 2.48671 15.5306 3.32671 15.1013 4.42804C14.6906 5.52937 14.4853 6.85471 14.4853 8.40404V16.86C14.4853 18.4094 14.6906 19.744 15.1013 20.864C15.5306 21.9654 16.2306 22.8147 17.2013 23.412C18.1719 24.0094 19.4879 24.308 21.1493 24.308C22.8293 24.308 24.1546 24.0094 25.1253 23.412ZM21.7704 5.48333L21.7582 5.47115C21.7425 5.45543 21.6144 5.34404 21.1493 5.34404C20.7434 5.34404 20.6227 5.44483 20.5964 5.47115L20.5842 5.48333L20.5716 5.49509C20.47 5.58989 20.3679 5.74584 20.3083 6.03199C20.2307 6.40423 20.1893 6.82043 20.1893 7.28404V18.008C20.1893 18.4737 20.2219 18.907 20.2848 19.3093C20.3426 19.5718 20.4398 19.7415 20.5517 19.8598C20.5897 19.8891 20.738 19.976 21.1493 19.976C21.5851 19.976 21.7396 19.8861 21.7755 19.8591C21.8896 19.7383 21.9883 19.5638 22.0455 19.2918C22.1242 18.8968 22.1653 18.4696 22.1653 18.008V7.28404C22.1653 6.82043 22.1238 6.40423 22.0463 6.03199C21.9867 5.74584 21.8845 5.58989 21.783 5.49509L21.7704 5.48333ZM23.0253 19.492C22.9319 19.94 22.7453 20.304 22.4653 20.584C22.1853 20.8454 21.7466 20.976 21.1493 20.976C20.5706 20.976 20.1413 20.8454 19.8613 20.584C19.5813 20.304 19.3946 19.94 19.3013 19.492C19.2266 19.0254 19.1893 18.5307 19.1893 18.008V7.28404C19.1893 6.76137 19.2359 6.27604 19.3293 5.82804C19.4226 5.38004 19.6093 5.02537 19.8893 4.76404C20.1693 4.48404 20.5893 4.34404 21.1493 4.34404C21.7466 4.34404 22.1853 4.48404 22.4653 4.76404C22.7453 5.02537 22.9319 5.38004 23.0253 5.82804C23.1186 6.27604 23.1653 6.76137 23.1653 7.28404V18.008C23.1653 18.5307 23.1186 19.0254 23.0253 19.492ZM29.9541 25V0.320038L36.5741 0.320038V6.00659L39.0017 0.320038L57.2873 0.320038V5.51204H52.0233V9.53204H56.0833V14.752H52.0233V19.864H57.3433V25H39.0888L36.5741 17.6973V25H29.9541ZM39.8021 24H44.4501L39.8861 11.512L44.1421 1.32004H39.6621L35.5741 10.896V1.32004H30.9541V24H35.5741V15.124L36.3021 13.836L39.8021 24ZM40.9597 11.5363L45.4033 23.695V0.894889L40.9597 11.5363ZM51.0233 20.864V13.752H55.0833V10.532H51.0233V4.51204H56.2873V1.32004L46.4033 1.32004V24H56.3433V20.864H51.0233ZM57.6807 25V0.320038L62.5613 0.320038L65.9407 8.2428V0.320038L71.7487 0.320038V25H66.9927L63.6287 16.6272V25H57.6807ZM62.6287 11.456L67.6687 24H70.7487V1.32004L66.9407 1.32004V13.136L61.9007 1.32004L58.6807 1.32004V24H62.6287V11.456Z" fill="#CBFF01"/>
</svg>
