<svg width="28" height="28" viewBox="0 0 28 28" fill="none" xmlns="http://www.w3.org/2000/svg">
<path d="M12.4693 0.63405C13.4494 0.228074 14.5506 0.228075 15.5307 0.634051L22.3688 3.46646C23.3489 3.87243 24.1276 4.65113 24.5335 5.63124L27.3659 12.4693C27.7719 13.4494 27.7719 14.5506 27.3659 15.5307L24.5335 22.3688C24.1276 23.3489 23.3489 24.1276 22.3688 24.5335L15.5307 27.3659C14.5506 27.7719 13.4494 27.7719 12.4693 27.3659L5.63124 24.5335C4.65112 24.1276 3.87243 23.3489 3.46645 22.3688L0.63405 15.5307C0.228074 14.5506 0.228075 13.4494 0.634051 12.4693L3.46645 5.63124C3.87243 4.65112 4.65113 3.87243 5.63124 3.46645L12.4693 0.63405Z" fill="#E2FF70"/>
<path d="M17.4723 15.1949C16.7081 15.1949 16.0887 14.5704 16.0887 13.8C16.0887 13.0296 16.7081 12.4051 17.4723 12.4051H20V10.0194C20 9.45638 19.5473 9 18.9889 9H9.01109C8.45267 9 8 9.45638 8 10.0194V17.5806C8 18.1436 8.45267 18.6 9.01109 18.6H18.9889C19.5473 18.6 20 18.1436 20 17.5806V15.1949H17.4723Z" fill="black"/>
<path d="M17.4838 14.6722C17.9619 14.6722 18.3494 14.2815 18.3494 13.7995C18.3494 13.3175 17.9619 12.9268 17.4838 12.9268C17.0057 12.9268 16.6182 13.3175 16.6182 13.7995C16.6182 14.2815 17.0057 14.6722 17.4838 14.6722Z" fill="black"/>
</svg>
