<svg width="28" height="28" viewBox="0 0 28 28" fill="none" xmlns="http://www.w3.org/2000/svg">
<path d="M12.4693 0.63405C13.4494 0.228074 14.5506 0.228075 15.5307 0.634051L22.3688 3.46646C23.3489 3.87243 24.1276 4.65113 24.5335 5.63124L27.3659 12.4693C27.7719 13.4494 27.7719 14.5506 27.3659 15.5307L24.5335 22.3688C24.1276 23.3489 23.3489 24.1276 22.3688 24.5335L15.5307 27.3659C14.5506 27.7719 13.4494 27.7719 12.4693 27.3659L5.63124 24.5335C4.65112 24.1276 3.87243 23.3489 3.46645 22.3688L0.63405 15.5307C0.228074 14.5506 0.228075 13.4494 0.634051 12.4693L3.46645 5.63124C3.87243 4.65112 4.65113 3.87243 5.63124 3.46645L12.4693 0.63405Z" fill="#FFB800"/>
<path d="M19.8536 9.25391V9.52173C19.525 9.52173 18.9509 9.60174 18.7914 9.76147C18.6314 9.92118 18.4433 10.2782 18.2271 10.8325L15.0985 18.74L13.0935 18.7457L9.63856 11.0017C9.36614 10.3912 9.13157 9.99174 8.9337 9.80363C8.73641 9.61581 8.47374 9.52173 8.14453 9.52173L8.14453 9.25391H13.5465V9.52173C13.133 9.52173 12.485 9.55243 12.3393 9.61351C12.1936 9.67459 12.1208 9.81768 12.1208 10.0434C12.1208 10.175 12.1982 10.4147 12.353 10.7623C12.5079 11.1101 12.6232 11.3734 12.6983 11.5517L14.8249 16.2976L16.8959 11.1414C16.9527 10.963 17.0146 10.78 17.0812 10.5922C17.1385 10.3855 17.1666 10.2449 17.1666 10.1698C17.1666 9.90685 17.0754 9.73337 16.8919 9.64876C16.709 9.56417 15.9186 9.52172 15.5992 9.52172V9.25391H19.8536Z" fill="black"/>
</svg>
