<svg width="28" height="28" viewBox="0 0 28 28" fill="none" xmlns="http://www.w3.org/2000/svg">
<path d="M12.4693 0.63405C13.4494 0.228074 14.5506 0.228075 15.5307 0.634051L22.3688 3.46646C23.3489 3.87243 24.1276 4.65113 24.5335 5.63124L27.3659 12.4693C27.7719 13.4494 27.7719 14.5506 27.3659 15.5307L24.5335 22.3688C24.1276 23.3489 23.3489 24.1276 22.3688 24.5335L15.5307 27.3659C14.5506 27.7719 13.4494 27.7719 12.4693 27.3659L5.63124 24.5335C4.65112 24.1276 3.87243 23.3489 3.46645 22.3688L0.63405 15.5307C0.228074 14.5506 0.228075 13.4494 0.634051 12.4693L3.46645 5.63124C3.87243 4.65112 4.65113 3.87243 5.63124 3.46645L12.4693 0.63405Z" fill="#58AFFF"/>
<path d="M20.4278 10.4899C20.1769 10.9529 19.7588 11.4159 19.1733 11.7245V12.0331C19.1733 15.8912 15.7444 19.0547 11.5628 19.0547C10.1411 19.0547 8.71932 18.6689 7.46484 17.9745C7.71574 17.9745 7.883 18.0517 8.1339 17.9745C9.38838 17.9745 10.5592 17.5887 11.4792 16.8942C10.3083 16.8942 9.30475 16.1998 8.97022 15.1967C9.13748 15.1967 9.30475 15.2739 9.47201 15.2739C9.72291 15.2739 9.9738 15.2739 10.1411 15.1967C8.88659 14.9652 7.96664 13.9621 7.96664 12.8047C8.30116 12.9591 8.71932 13.1134 9.13748 13.1134C8.46843 12.6504 8.05027 11.8788 8.05027 11.0301C8.05027 10.5671 8.21753 10.1813 8.3848 9.79548C9.72291 11.3387 11.7301 12.2646 13.9045 12.3418C13.8209 12.1875 13.8209 11.956 13.8209 11.8017C13.8209 10.4128 14.9917 9.33252 16.4971 9.33252C17.2498 9.33252 17.9188 9.64116 18.4206 10.1041C19.0061 10.027 19.5915 9.79548 20.0933 9.48684C19.926 10.027 19.5079 10.5671 18.9224 10.8757C19.4242 10.7986 20.0096 10.6442 20.4278 10.4899Z" fill="black"/>
</svg>
